<svg aria-hidden="true"  xmlns="http://www.w3.org/2000/svg" overflow="hidden"><defs><symbol id="icon-Vectorc" viewBox="0 0 34 32"><path d="M30.147 3.556v24.889H3.769V3.556h26.378zm0-3.556H3.769C1.696 0 .001 1.6.001 3.556v24.889c0 1.956 1.696 3.556 3.768 3.556h26.378c2.073 0 3.769-1.6 3.769-3.556V3.556C33.916 1.6 32.22 0 30.147 0z"/></symbol><symbol id="icon-Vectorx" viewBox="0 0 32 32"><path d="M32 3.223L28.777 0 16 12.777 3.223 0 0 3.223 12.777 16 0 28.777 3.223 32 16 19.223 28.777 32 32 28.777 19.223 16 32 3.223z"/></symbol></defs></svg>